<?xml version="1.0" encoding="iso-8859-1"?>
<!-- Generator: Adobe Illustrator 19.0.0, SVG Export Plug-In . SVG Version: 6.00 Build 0)  -->
<svg version="1.1" id="Capa_1" xmlns="http://www.w3.org/2000/svg" xmlns:xlink="http://www.w3.org/1999/xlink" x="0px" y="0px"
	 viewBox="0 0 512.006 512.006" style="enable-background:new 0 0 512.006 512.006;" xml:space="preserve">
<path style="fill:#5BD0FC;" d="M123.302,5.38c-12.2,0.7-23.3,2.2-35.1,5.6s-21.4,9.5-31.1,16.9c-13.5,10.3-23.8,23.4-28,40.2
	c-4,16.3-1.8,32.1,6,46.9c6,11.4,17.1,19.1,28.4,24.5c12.5,5.9,28.8,8.5,42.5,9.5c6.4,0.5,12.8,0.6,19.2,0.9c2.5,0.1,7.7-0.7,10,0.4
	c2.2,1,4.3,5.9,5.7,7.5c4,4.8,8.2,9.5,12.9,13.6c2.9,2.6,5.7,4.8,9.1,6.7c1,0.6,2.1,0.8,2.9,1.6c3.4-9.1,3.1-19.3,3.8-28.8
	c0.2-2.5-0.1-4.4,1.7-5.9c2.1-1.7,8.6-2.4,11.2-3.3c26.4-9.2,55.8-27.3,59.2-58c2.7-24-13.7-45.1-31.7-59
	c-23.1-17.7-52.1-23.7-80.7-20.3"/>
<g>
	<path style="fill:#F0F2FA;" d="M337.302,171.98c-13.6,0.3-27.3-1-41-1.1c-7.7,0-15.2,0.6-22.9,1.1c-7.2,0.4-14.7-0.2-21.8,1.5
		c-10.7,2.6-20.8,8.4-25.5,18.5c-5.7,12-7,22.8-7.4,36c-0.8,26.3,0.7,52,7.2,77.6c2.2,8.7,5.8,14.5,13.8,19
		c10.3,5.7,22.9,7.2,34.3,8.7c29.7,4.1,60.1,1.7,90,0.3c10.2-0.5,20-2.4,30-4.6c6.8-1.5,14.5-2.6,20.9-5.7
		c14.3-6.9,17.9-24.3,18.6-38.8c1-21.4,1.3-43.7,0-65c-0.6-9.7-1-20.8-3.4-30.2c-1.8-7.2-6.6-11.3-13.4-14
		c-11.9-4.7-25.4-5.9-38.1-6.9c-7.4-0.5-14.6-1-22.1-1C349.302,167.48,341.302,166.78,337.302,171.98z"/>
	<path style="fill:#F0F2FA;" d="M334.102,366.38c-34.1-5-68.8-1.6-103,1c-12.8,1-25.8,2.8-37.6,8.2c-12.5,5.7-18.4,20.5-19.7,33.4
		c-1.3,13.7-1.6,28.2-1.8,42c-0.1,11-0.9,22.5,0.3,33.5c0.5,4.1,0.7,14.2,3.4,17.8c4.7,6.1,23.1,3.6,28.8,3.1
		c28.3-2.4,56.8-1.5,85.1-1.4c27.4,0.1,54.9-3.7,82.2-1.4c4,0.3,8,0.7,11.9,1.1c9.2,0.8,18.4,0.9,27.6,0.3
		c10.5-0.7,22.2-1.3,32.7-0.4c8.7,0.7,16.2,1.5,25-0.8c3.1-0.8,6.7-0.8,9.5-2.2c10.1-5.2,7.5-14.3,7-23.3
		c-0.7-12.9-2.9-25.6-3.8-38.5c-0.9-13.3-2.2-27.4-5.2-40.5c-2.6-11.5-9-19.4-19.6-24.4c-14.5-6.9-32.4-8.6-48.2-10
		C384.502,361.88,360.802,365.78,334.102,366.38z"/>
</g>
<path style="fill:#D8DEEC;" d="M232.002,491.98c-0.2-7.5-0.8-14.4,0-21.9c0.8-8,1.7-16,2.3-24.1c0.5-6.3,0.8-12.7,1.7-19
	c1-6.5,0.7-13.3,6.1-18c4.2-3.7,10.9-6.2,16.5-6c4.5,0.2,8.8,2.2,13.3,2.8c7.8,1,16.1,0.2,24,0c24.8-0.8,49.7-1.5,74.5-0.4
	c13.9,0.6,27.8,0.5,41.6,2.1c4,0.5,9.9-0.5,12.5,3c5.8,7.7,1.7,20.5,0.9,29c-1.7,18.8-1.1,37.8-1.1,56.7c0,5.5,1.2,7.6-4.8,8
	c-24.6,1.5-49.7,0.8-74.3,0c-36.3-1.2-72.8,2.9-108.9-2.5C229.902,500.68,232.202,497.78,232.002,491.98z"/>
<path style="fill:#5B5D6D;" d="M279.802,333.28c-0.3,5.8,0.8,11.5,1,17.2c0.2,3.9-1.6,12.2,0.5,15.8c1.9,3.2,4.4,1.9,7.5,1.5
	c21.9-2.8,43.9-2.1,65.9-2.7c3.8-0.1,7.6-0.8,11.5-0.7c1.1,0,6,1.1,6.9,0.3c0.8-0.7,0.3-2.8,0.3-3.7c0.1-5.9-0.8-11.8-1.6-17.7
	c-0.5-4-0.5-8-0.5-12c-12.5,1.7-25.3,1.7-37.9,2.4C315.702,334.58,297.902,335.08,279.802,333.28z"/>
<path style="fill:#D8DEEC;" d="M313.902,84.58c-0.6,19.6,1.2,39.9,4,59.3c5.1-3,16.1-4.5,21.7-2.2c1.2-15.1-3.8-30.2-2.4-45.4
	c0.4-4.6,1.8-9.6,0.3-14.1C330.002,82.38,323.002,83.68,313.902,84.58z"/>
<path style="fill:#ED6D66;" d="M325.402,39.28c-4.6-1.5-11.1,5.1-13.9,8.4c-4.7,5.6-5.8,9.7-5,16.7c1.3,10.6,9.8,15.9,20,16.3
	c11.4,0.5,18.4-5.8,22-16.5c1.7-5,1.6-11.4-1.5-15.9c-2.3-3.4-6.2-4.1-9.6-6C334.802,40.88,331.802,37.48,325.402,39.28z"/>
<g>
	<path style="fill:#F9D889;" d="M263.402,217.98c-10.5,6.4-16.3,21-9.3,31.8c5.2,8.1,15.8,12.8,25.1,8.3c9.8-4.8,12.8-18,10.7-27.9
		C287.302,218.48,272.602,208.58,263.402,217.98z"/>
	<path style="fill:#F9D889;" d="M376.602,218.38c-11.3,5-13.6,19.6-8.5,30c4.2,8.6,13.5,10.5,22.2,8.3c9.6-2.4,13.4-11.8,13.8-21.2
		c0.2-4.8-0.3-9.7-3.3-13.6C396.702,216.28,387.002,212.98,376.602,218.38z"/>
</g>
<path style="fill:#D8DEEC;" d="M324.402,227.08c-4.9,3.9-7.9,12.2-10.5,17.6c-1.3,2.7-3.2,5.8-3.1,8.9c5.3,2.5,12.9,0.8,18.6,1.1
	c3.4,0.2,7.4,1.5,10.6-0.1c4.9-2.3,0.1-9.2-1.7-13.5c-1.6-3.9-3.8-6.5-5.9-9.9C331.502,229.48,331.402,226.28,324.402,227.08z"/>
<path style="fill:#FFFFFF;" d="M354.302,272.38c-15.7-4.6-32-2.8-48.2-2.8c-12.2,0-27-1.9-38.7,2c-3.8,1.3-9.9,4.7-11.8,8.6
	c-1.9,3.9-0.6,11,0.8,14.9c5.2,13.9,27.1,12.3,39.2,13.2c13.1,0.9,26,1.8,39.1,1.7c11.8,0,23.4-2.6,35.1-3.5
	c5.6-0.4,12.5,0,17.4-2.8c5-2.9,8.9-9.4,9.1-15.3c0.3-5.9-4.8-12.3-9.8-14.9c-5.3-2.8-11.1-3.2-17-3.7c-5-0.5-9.9-1.1-14.9-0.3
	c-2.9,0.4-5.9,1.9-8.8,1.2"/>
<path style="fill:#ED6D66;" d="M265.502,427.08c-2.8,0.7-5.4,5.4-7,7.8c-3.7,5.9-5.5,11-3.7,17.7c3.5,12.6,16.4,19.5,28.3,12.8
	c9.2-5.2,10.6-21.4,7.3-30c-1.7-4.6-4.5-9.3-9.6-10.8C276.202,423.18,270.402,426.38,265.502,427.08z"/>
<path style="fill:#CBE580;" d="M315.602,429.18c-11.8,6.9-10.6,28.9,0.4,36.3c7.3,5,18.5,1.1,23.9-5.1c5.3-6,7.3-18.1,3.3-24.9
	c-2.1-3.6-4.5-5.2-8.2-7.1C328.502,424.98,324.502,425.28,315.602,429.18z"/>
<path style="fill:#F9D889;" d="M364.102,428.08c0,15.8-0.8,31.5-1.4,47.3c-0.2,4.9,0.2,9.8,0.4,14.7c0.3,5-0.8,11.3,0.8,16.1
	c10.9,0.1,24.7,3,35.5-0.4c2-0.6,1.7,0,2.7-1.5c0.9-1.3,0.2-7.2,0.2-8.1c0.1-4.7,0.6-9.4,0.9-14.1c1.1-18.5,1.4-37.2,1.6-55.7
	C393.402,425.58,381.802,428.08,364.102,428.08z"/>
<g>
	<path style="fill:#5B5D6D;" d="M340.702,482.78c-0.3-5.4-10.1-4.8-13.6-4.9c-8.8-0.3-17.5-0.1-26.3-0.7
		c-14.2-0.9-28.9-0.4-43.1,0.7c-4.3,0.3-10.3,5.4-4.8,9.4c2.1,1.6,9.1,1.1,11.7,1.5c4.4,0.7,8.8,1,13.2,1.3
		c16.3,1,31.7,1.3,47.9-0.8C330.002,488.88,346.902,490.38,340.702,482.78z"/>
	<path style="fill:#5B5D6D;" d="M277.602,170.48c-0.6,0.9-1.1,1.8-1.8,2.6c2-4.6,7.9-9.1,11.8-12.1c5.8-4.4,13.1-8.6,20-11
		c12.2-4.2,25.4-4.2,38.1-2.1c5.1,0.8,8.9,2.5,13.4,5c3.4,1.9,6.3,2.6,9.1,5.4c3.5,3.6,9.7,11.7,6.4,16.9c-2.7-0.1-5.4-0.7-8.1-0.7
		c-11.6-0.2-23.1,0.6-34.7,0.3c-10.9-0.3-21,0.2-31.9,1.5c-5.6,0.7-15.3,3.2-20.6,0.3"/>
</g>
<path d="M71.102,42.88c20.2,0.2,40.3,1.7,60.5,1.9s40.4,0.4,60.5,0c4.6-0.1,4.6-7.1,0-7.2c-20.2-0.4-40.4-0.2-60.5,0
	c-20.2,0.2-40.4,1.7-60.5,1.9C69.002,39.58,69.002,42.78,71.102,42.88z"/>
<path d="M71.102,69.08c20.2,0.2,40.3,1.7,60.5,1.9c20.2,0.2,40.4,0.4,60.5,0c4.6-0.1,4.6-7.1,0-7.2c-20.2-0.4-40.4-0.2-60.5,0
	c-20.2,0.2-40.4,1.7-60.5,1.9C69.002,65.78,69.002,69.08,71.102,69.08z"/>
<path d="M275.702,261.08c13.7-2.4,21.4-16.3,18.5-29.3c-3-13.9-17-23.6-30.9-18.2c-5.9,2.3-10.2,7-12.7,12.6
	c-2.5,4.4-3.4,9.6-2.7,14.7C249.702,254.18,262.502,263.38,275.702,261.08z M254.102,233.38c1.7-8,9.1-14.5,17.5-13.9
	c12.8,1,20.1,17.1,13,27.7C274.202,262.58,250.302,250.98,254.102,233.38z"/>
<path d="M388.202,261.08c13.7-2.4,21.4-16.3,18.5-29.3c-3-13.9-17-23.6-30.9-18.2c-5.9,2.3-10.2,7-12.7,12.6
	c-2.5,4.4-3.4,9.6-2.7,14.7C362.302,254.18,375.102,263.38,388.202,261.08z M366.602,233.38c1.7-8,9.1-14.5,17.5-13.9
	c12.8,1,20.1,17.1,13,27.7C386.702,262.58,362.902,250.98,366.602,233.38z"/>
<path d="M328.302,259.08c5,0.2,13,0.5,16.2-4.3c2.9-4.3,0.8-11.2-1.2-15.4c-2.4-5.1-7.2-13.8-12.5-16.3c-5-2.3-9,1.6-11.5,5.6
	c-1.4,2.2-2.7,4.5-4,6.8c-1.3,1.8-2.4,3.7-3.4,5.7c-2,4.1-5.1,10.1-1.1,14C314.702,258.88,323.302,258.88,328.302,259.08z
	 M316.102,245.98c1.3-2.4,2.5-4.9,3.8-7.3c1.1-1.9,4.5-8.6,7.2-8.6c1.6,0,7,8.5,7.7,9.6c1.2,1.9,5.5,8.4,4,10.9
	c-1.7,2.8-8.8,1.8-11.4,1.7c-2.5-0.1-4.9-0.4-7.3-0.9c-2.4-0.4-4.5-0.1-4.4-3.2C315.702,247.48,315.802,246.68,316.102,245.98z"/>
<path d="M344.302,313.68c13.7-0.4,28.9-1.4,41.7-6.9c9.5-4.1,18.1-14.4,13.5-25.2c-5.5-12.9-23.9-13.7-35.7-14.4
	c-12.5-0.7-25.1-0.9-37.6-0.7c-11.4-0.8-22.9-1-34.3-0.5c-12.1,0.6-28.6,1.2-37.2,11.1c-7.2,8.3-4.4,19.5,4.1,25.6
	c10.7,7.7,26.9,8.4,39.6,9.5C313.502,313.48,329.002,314.08,344.302,313.68z M274.602,302.08c-1.1-0.3-2.2-0.5-3.3-0.8
	c-4.9-1.4-10.4-3.5-12.9-8.3c-3.2-6.3,1.4-12.1,7-14.6c3.1-1.4,6.5-2.4,10-3.1C275.002,284.18,274.402,293.18,274.602,302.08z
	 M300.302,305.58c-6.3-0.4-12.6-1-18.8-2c0,0,0,0,0-0.1c0.4-9.6-0.4-19.4-0.8-29c6.7-0.8,13.7-0.8,20-1
	C299.802,284.08,299.802,294.98,300.302,305.58z M323.502,306.48c-4.9-0.1-9.7-0.3-14.6-0.5c-0.8,0-1.6-0.1-2.4-0.1
	c0.1-10.8-0.3-21.8-1.7-32.5c6.6,0,13.2,0.1,19.7,0.4C324.202,284.68,323.702,295.58,323.502,306.48z M378.402,276.88
	c2.3,0.3,4.5,0.7,6.7,1.6c4.1,1.7,8.3,5.4,8,10.2c-0.4,6.5-6.7,10.4-12.2,12.3c-0.8,0.3-1.6,0.5-2.4,0.8
	C378.202,293.48,378.202,285.18,378.402,276.88z M373.502,276.48L373.502,276.48c-1,9-1.7,18.1-2.4,27.2c-4.9,1-9.9,1.7-14.9,2.1
	c-0.3-10.1-1.3-20.2-1.7-30.4C360.802,275.88,367.202,276.18,373.502,276.48z M329.702,273.98c7,0.3,14.1,0.8,21.1,1.2
	c-0.6,10.3-1.6,20.7-1.4,31c-1.4,0.1-2.7,0.1-4.1,0.2c-4.9,0.2-9.9,0.2-14.8,0.2C330.302,295.78,330.002,284.88,329.702,273.98z"/>
<path d="M277.802,469.18c27.1-5.5,22-55.4-7.7-47.3c-9.2,2.5-16.6,11.1-18.1,20.5c-0.7,2.6-0.8,5.4-0.4,8.4
	C253.502,463.28,265.302,471.68,277.802,469.18z M261.302,434.78c3-3.4,7.2-5.7,12-6.1c12.7-1,16.5,13.2,13.2,23.1
	c-3.7,11.2-18.2,14.1-25.4,4.3C256.302,449.48,256.902,440.98,261.302,434.78z"/>
<path d="M271.902,448.58c2-0.8,3-2.3,4.2-4c1.3-1.6,2.5-3.3,3.7-5c2.3-3.1-3.2-6.5-5.3-3.1c-1,1.7-2,3.3-3,5c-0.9,1.6-2.1,3.2-2,5.2
	C269.502,447.88,270.702,449.08,271.902,448.58z"/>
<path d="M329.602,421.88c-29.7-8.1-34.8,41.8-7.7,47.3c12.5,2.5,24.3-5.9,26.2-18.4c0.5-3,0.3-5.8-0.4-8.4
	C346.202,432.98,338.802,424.38,329.602,421.88z M338.602,456.08c-7.1,9.8-21.7,6.9-25.4-4.3c-3.3-9.9,0.5-24.1,13.2-23.1
	c4.8,0.4,9,2.7,12,6.1C342.702,440.98,343.302,449.48,338.602,456.08z"/>
<path d="M325.102,436.58c-2.1-3.4-7.5,0-5.3,3.1c1.2,1.7,2.4,3.4,3.7,5c1.3,1.6,2.2,3.2,4.2,4c1.2,0.5,2.4-0.7,2.4-1.8
	c0-2-1.1-3.5-2-5.2C327.102,439.88,326.102,438.18,325.102,436.58z"/>
<path d="M327.602,475.98c-10.7-0.5-21.6-1.2-32.3-0.4c-6-0.2-12-0.4-17.9-0.6c-4.6-0.1-9.3-0.3-14-0.3c-3.5,0-7.5-0.2-10.7,1.4
	c-4.6,2.3-7.5,9-3.1,12.9c2,1.8,4.6,2,7.2,2.1c5.3,0.3,10.7,0.2,16,0.4c10.3,0.3,20.7,0.6,31,1c10,0.3,20.2,1.3,30.1,0.8
	c5.4-0.2,12-3.2,11.9-9.6C345.702,474.88,333.502,476.28,327.602,475.98z M338.302,486.88c-1.7,1.6-5.4,1.1-7.5,1.1
	c-18-0.2-36-0.8-54.1-1.3c-4.7-0.1-9.3-0.3-14-0.4c-1.6,0-4.5,0.3-6-0.2c-2.2,0.3-3-1.1-2.4-4.2c1-0.5,2-0.8,3.1-0.8
	c3.9-0.5,8.1,0.1,12,0.2c4.7,0.1,9.3,0.1,14,0.1c14.7-0.1,29.4,0,44.1-0.2c2.1,0.2,4.2,0.3,6.2,0.5
	C334.902,481.78,343.502,481.98,338.302,486.88z"/>
<path d="M176.902,182.28c-1.6-7.8-2.4-15.7-2.4-23.6c0-2.5-0.7-6.5,1.4-8c1-0.7,3.4-0.8,4.6-1.1c2.2-0.6,4.4-1.3,6.6-2
	c12.2-4.3,23.6-10.9,33.8-18.8c10.1-7.7,19-16.9,24-28.7c4.8-11.3,5.4-24,2.8-36c-5.4-24.8-25.4-43.2-48.1-52.9
	c-26.3-11.1-57.2-12.4-85.4-10.4c-17.9,1.3-36.5,5.9-51.5,15.7c-19.2,10.6-34.8,28-40.4,49.6c-5.9,22.5,0.4,45.7,16.8,62.2
	c17.4,17.5,41.7,24.9,65.8,27.4c6.9,0.7,14.3,0,21.1,1.3c5.7,1,9.8,8,13.6,12c8.5,9.1,18.1,17.8,30.7,20.2
	C174.402,189.88,177.802,186.58,176.902,182.28z M164.102,160.68c0,5,0.3,9.9,0.8,14.9c-6.2-3.3-11.4-8.3-16.3-13.6
	c-6.9-7.5-12.4-16-23.5-16.7c-23.2-1.5-46.2-2.4-66.6-15.1c-20.6-12.8-33.5-36.9-26.8-61c10.3-36.8,44.2-56.6,80.6-58.8
	c26.4-1.6,55.1,0.4,79.7,10.5c21.2,8.7,40.2,25.4,45.2,48.6c2.5,11.5,1,23.9-5.3,33.9c-6.5,10.4-17,18.1-27.2,24.5
	c-5.9,3.7-12.2,7.1-18.8,9.5c-5.4,2-12.8,2.2-17.4,5.8C163.402,147.18,164.102,154.88,164.102,160.68z"/>
<path d="M491.302,435.98c-1-14.9-3-30.7-8.6-44.7c-5-12.6-14.3-21.1-27.2-25.3c-13.3-4.3-28.2-4.4-42-5.2
	c-11.7-0.7-23.5-1.1-35.3-1.4c-0.8-7.2-2.2-14.3-3.1-21.4c8.9-0.7,17.7-1.7,26.4-3c11.7-1.7,22.4-5.5,29.2-15.8
	c6.8-10.3,8.5-23.5,9.9-35.5c1.7-15,1.7-30.3,1-45.4c-0.6-13.9-1.2-28.2-3.5-41.9c-2.2-13.2-10.3-22.8-23.2-26.4
	c-11.7-3.3-24.5-2.8-36.7-2.6c-6.9-12.6-20-21.4-34.1-25.6c0.4-4.8-0.5-9.8-0.9-14.5c-0.4-5.3-0.7-10.6-0.9-15.9
	c-0.5-9.9-1-19.8-1.2-29.6c9.1-7.1,13.9-21.4,10.6-31.6c-2.2-6.9-7.4-11.8-14.4-13.7c-6.6-1.8-15.9-2.3-22,1
	c-5.8,3.1-10.2,8.4-12.5,14.5c-1.9,3.6-2.8,7.7-2.2,12.2c0.5,3.6,2,7,4,9.9c0.2,0.3,0.4,0.6,0.6,0.9l0.1,0.1
	c0.2,0.3,0.4,0.5,0.6,0.8c1.4,1.6,2.9,3.1,4.6,4.4c-1.4,9.4-0.1,19.9,0.2,29.3c0.3,10.3,0.1,20.9,1.2,31.2c-6.1,1.4-12,3.8-17.4,6.9
	c-9.3,5.4-16.1,12.1-21,21.3c-16.4,1-32.6,4.3-45.3,14.4c-21.8,17.4-16.7,46.5-14.8,70.9c1.2,15.3,2.4,30.7,3.6,46
	c0.9,11.6,2.6,23,13.8,29.1c11.6,6.4,26.7,7.6,39.6,9.1c1.8,0.2,3.6,0.4,5.4,0.6c-0.6,6.4,0.2,13.5,0.3,19.8
	c-4.4,0.1-8.8,0.2-13.3,0.4c-17.6,0.7-35.9,1.6-53,5.9c-14.5,3.7-31.3,11-36.3,26.4c-2.7,8.1-2.2,17.3-2.5,25.7
	c-0.3,9.4-0.6,18.9-0.9,28.3c-0.3,10.4-0.6,20.8-0.9,31.3c-0.7,4.9-1.5,9.8-2.2,14.7c-0.9,5.7-0.8,12.5,4.9,15.8
	c5.6,3.2,14.6,1.6,20.8,1.7c8.7,0.1,17.5,0.2,26.2,0.3c16.8,0.2,33.6,0.4,50.4,0.7c33.6,0.5,67.1,0.9,100.7,1.4
	c32.7,0.4,65.8,1.4,98.4-1.2c5.8-0.5,12-1.5,16.3-5.9c5.5-5.5,5.3-13.6,5.8-20.8C491.802,467.78,492.402,451.88,491.302,435.98z
	 M308.702,61.78c-0.4-5.3,2.2-10.6,6.5-13.7c6.5-4.8,20-4.5,25.2,2.3c3.7,4.7,2.8,11.4,0.3,16.4c-2.9,5.9-7.3,11.1-14.4,10.5
	C318.102,76.58,309.402,70.68,308.702,61.78z M333.502,128.28c0.1,3.7-0.1,7.6,0.3,11.3c-2.8-0.4-5.7-0.5-8.4-0.5c-1,0-2,0.1-3,0.1
	c-0.1-9.9-1.3-19.9-2-29.7c-0.4-5.3-0.8-10.5-1.2-15.8c-0.3-3.1-0.4-6.2-0.8-9.2c4.6,1.7,9.5,2.3,14.3,1.3c0.7-0.1,1.3-0.3,1.9-0.5
	c-0.6,9-1.1,18-1.2,27.1C333.402,117.78,333.402,122.98,333.502,128.28z M324.702,150.58c8.6-0.3,17.2,1.5,24.8,5.5
	c5.7,3,10.1,6.8,13.8,11.4c-19.9,0-39.8,0.4-59.7,1.3c-6.6-0.1-13.4-0.3-20.3-0.1C295.202,158.98,309.402,151.18,324.702,150.58z
	 M256.002,324.68c-5.4-1.1-11.1-2.1-16.3-4.1c-5.9-2.2-9-6-10.2-12.1c-2.5-12.4-2.5-25.6-3.7-38.2c-1.2-12.9-2.6-25.9-3.4-38.8
	c-0.8-11.7-0.6-24.6,7.2-34.1c7.7-9.6,20-13.9,31.8-15.9c14.8-2.5,30.2-2.8,45.1-3.3c30.5-0.9,60.9-0.4,91.4,0.9
	c0.8,0,1.3-0.2,1.8-0.6c7,0.7,14.3,2.2,19.7,6.6c4,3.3,5.6,8.1,6.4,13.1c1,6.7,1.2,13.6,1.7,20.3c1,13.2,2,26.4,2.1,39.6
	c0.1,12.9-0.4,26-2.6,38.7c-1.8,10.5-5.3,20.9-16.1,24.9c-11.6,4.3-25.3,4.6-37.6,5.3c-12.9,0.8-25.8,1.2-38.7,1.6
	C308.302,329.58,281.802,329.78,256.002,324.68z M367.002,346.88c-14-0.7-28.2-0.1-42.2-0.1c-13.2,0-26.6-0.6-39.8,0.3
	c0,0,0,0,0-0.1c-0.2-2.4-0.3-4.9-0.6-7.3c9.9,0.6,19.8,0.8,29.7,0.6c17.7-0.2,35.6-0.6,53.4-1.7
	C367.302,341.38,367.102,344.18,367.002,346.88z M367.202,359.28c-1.3,0-2.5-0.1-3.8-0.1c-25.7-0.4-51.4-0.8-77.1-0.5
	c-0.2-2.2-0.5-4.5-0.7-6.7c13,1.1,26.3,0.9,39.3,1.2c14,0.4,28.1,1.3,42.1,1C367.002,355.88,367.002,357.58,367.202,359.28z
	 M398.402,499.58c-3.4,0-6.9,0-10.3-0.1c-8-0.1-16-0.2-24-0.3c0.1-3.8,0.2-7.6,0.3-11.5c11.6,1.2,23.2,2.6,34.9,2.8
	C398.902,493.58,398.702,496.58,398.402,499.58z M399.702,484.38c-11.7-1-23.6-0.5-35.3,0c0.1-6,0.2-12,0.4-18
	c11.7,2.1,24,2.2,35.9,2.7C400.402,474.18,400.102,479.28,399.702,484.38z M401.402,454.68c-0.1,2.7-0.2,5.3-0.4,8
	c-11.8-1.3-24.5-2.1-36.2,0.2c0-1.3,0.1-2.5,0.1-3.8c0.1-4.7,0.2-9.4,0.3-14.1c12,1.3,24.3,2.4,36.4,2.1
	C401.602,449.58,401.502,452.18,401.402,454.68z M401.902,441.78c-12.1-0.8-24.4-0.7-36.5-1.1c0-1.8,0.1-3.6,0.1-5.4
	c0-1.1-0.4-5.4,0.2-5.9c0.8-0.6,2.6-0.2,3.6-0.3c4-0.2,8-0.3,12.1-0.3c4.8,0,9.6,0.5,14.4,0c1.8-0.2,3.8-0.1,5.1,1.1
	C402.402,431.28,403.002,441.88,401.902,441.78z M420.102,460.48c-0.4,13-0.5,26.1-1.3,39.1c-4.3,0-8.6,0.1-12.9,0.1
	c1.3-18.6,2.4-37.2,2.7-55.9c0.1-4.6,0.5-9.4,0.1-13.9c-0.2-2.2-0.5-4.3-2.5-5.7c-2.6-1.8-6.9-1.3-9.8-1.4
	c-4.7-0.2-9.4-0.3-14.1-0.3s-9.4,0.1-14.1,0.4c-2.7,0.2-5.9,0.1-7.8,2.4c-1.8,2.2-1.4,5.6-1.5,8.2c-0.2,4.6-0.3,9.2-0.4,13.8
	c-0.5,17.3-0.2,34.7,0.8,52c-20.6-0.3-41.1-0.6-61.7-0.8c-21.4-0.3-42.8-0.6-64.2-0.9c2-20,1.2-40.1,3-60.1
	c0.6-5.9,1.1-11.9,2.4-17.7c1.4-5.9,4.5-9,10.3-10.6c10.7-2.9,23-2.2,34-2.2c24.1-0.2,48.3,0.4,72.4,1.2c12.2,0.4,24.4,1,36.6,2
	c5.9,0.5,11.8,1,17.7,1.7c2.4,0.3,5.2,0.1,7.4,1c3.5,1.4,3.3,4.1,3.5,7.5C421.702,433.48,420.502,447.08,420.102,460.48z
	 M479.102,456.88c-0.2,7-0.5,14-1,21c-0.3,4.6,0.8,16-4,18.4c-5.2,2.6-13,1.9-18.6,2.2c-7.3,0.4-14.5,0.7-21.8,0.8
	c-2.1,0.1-4.2,0.1-6.3,0.1c0-26,3-52.3,1.4-78.3c-0.3-4.4-0.3-9.7-3.7-13c-3.4-3.3-8.7-3.3-13.1-3.8c-13.8-1.5-27.6-2.4-41.4-2.9
	c-27-1.1-54.2-1.4-81.2-1.3c-12.6,0.1-25.8-0.4-38.3,1.5c-9.7,1.5-16.8,6.3-19.1,16.1c-6.2,25.9-2.8,53.3-2.6,79.8
	c-11.4-0.2-22.7-0.3-34.1-0.5c-4-0.1-8.1-0.1-12.1-0.2c-0.5,0-3.4,0.3-4.7,0.2c0.5-0.5,0.4-3.1,0.4-3.5c0.9-7.9,1.8-15.8,2.3-23.7
	c0.5-10.1,0.6-20.1,0.2-30.1c0.7-10.1,1.3-20.3,1.9-30.4c0.3-6.2,0.2-13.1,3.9-18.4s10-8.5,15.9-10.9c13.3-5.3,28-6.7,42.2-7.8
	c30-2.3,60.2-1.7,90.2-1.5c30.1,0.2,60.3,0.9,90.3,3.3c11.6,0.9,24.5,1.4,34.6,7.8c10.9,6.8,13.9,20.8,16.1,32.6
	C478.902,428.28,479.402,442.68,479.102,456.88z"/>
<path d="M71.102,95.28c20.2,0.2,40.3,1.7,60.5,1.9c20.2,0.2,40.4,0.4,60.5,0c4.6-0.1,4.6-7.1,0-7.2c-20.2-0.4-40.4-0.2-60.5,0
	c-20.2,0.2-40.4,1.7-60.5,1.9C69.002,91.98,69.002,95.28,71.102,95.28z"/>
<path d="M192.202,116.28c-20.2-0.4-40.4-0.2-60.5,0c-20.2,0.2-40.4,1.7-60.5,1.9c-2.1,0-2.1,3.3,0,3.3c20.2,0.2,40.3,1.7,60.5,1.9
	c20.2,0.2,40.4,0.4,60.5,0C196.802,123.28,196.802,116.38,192.202,116.28z"/>
<g>
</g>
<g>
</g>
<g>
</g>
<g>
</g>
<g>
</g>
<g>
</g>
<g>
</g>
<g>
</g>
<g>
</g>
<g>
</g>
<g>
</g>
<g>
</g>
<g>
</g>
<g>
</g>
<g>
</g>
</svg>
