<svg enable-background="new 0 0 100 100" height="512" viewBox="0 0 100 100" width="512" xmlns="http://www.w3.org/2000/svg"><path d="m50.0049973 76.3903427c-14.5781021 0-26.3902836-11.8223038-26.3902836-26.3902245 0-14.5781631 11.8121815-26.3904686 26.3902836-26.3904686 14.5680466 0 26.3802872 11.8123055 26.3802872 26.3904686-.0000001 14.5679207-11.8122407 26.3902245-26.3802872 26.3902245z" fill="#467080"/><path d="m95 57.8648987v-15.7295647l-8.0180893-1.8490257c-.890892-3.391201-2.2415848-6.6002159-3.96595-9.5507946l4.3587418-6.9931259-11.1123276-11.1217423-6.9930649 4.3683377c-2.9601135-1.7339573-6.1596527-3.0752363-9.5507965-3.9660702l-1.8584366-8.0182056h-15.7200966l-1.8584366 8.0182056c-3.3911438.8908339-6.590744 2.2321129-9.5507946 3.9660702l-6.9835377-4.3683376-11.1218585 11.1217422 4.3586884 6.9931259c-1.724309 2.9505787-3.0750017 6.1595936-3.9658937 9.5507946l-8.0181476 1.8490257v15.7295647l8.0181475 1.848793c.890892 3.391201 2.2415848 6.6002121 3.9658937 9.5507965l-4.3586884 6.9931259 11.1218586 11.1219711 6.9835377-4.3683319c2.9600506 1.7339554 6.1596508 3.0749969 9.5507946 3.9658356l1.8584366 8.0182037h15.7200966l1.8584366-8.0182037c3.3911438-.8908386 6.590683-2.2318802 9.5507965-3.9658356l6.9930649 4.3683319 11.1123276-11.1219711-4.3587418-6.9931259c1.7243652-2.9505844 3.075058-6.1595955 3.96595-9.5507965zm-44.9951744 15.3750152c-12.8366394 0-23.2400303-10.4032784-23.2400303-23.2397957 0-12.8367538 10.4033909-23.2400284 23.2400303-23.2400284 12.8270454 0 23.2304344 10.4032745 23.2304344 23.2400284 0 12.8365174-10.403389 23.2397957-23.2304344 23.2397957z" fill="#b0b1b5"/><path d="m50.0050278 19.2763271c-16.9744606 0-30.7237911 13.7590809-30.7237911 30.7237911 0 16.9644661 13.7493305 30.7237892 30.7237911 30.7237892 16.9644623 0 30.7137909-13.7593231 30.7137909-30.7237892 0-16.9647102-13.7493286-30.7237911-30.7137909-30.7237911zm0 57.1140156c-14.5781021 0-26.3902855-11.8223038-26.3902855-26.3902245 0-14.5781631 11.8121834-26.3904686 26.3902855-26.3904686 14.5680466 0 26.3802872 11.8123055 26.3802872 26.3904686-.0000001 14.5679207-11.8122407 26.3902245-26.3802872 26.3902245z" fill="#dad7dc"/><path d="m50.9339294 37.4892044c1.6087189.1183128 3.1293297.5405121 4.5127029 1.2089157l3.6035577-6.2417831c-2.4512901-1.2677364-5.2005959-2.0250492-8.1162605-2.1611462v7.1940136z" fill="#e7a04e"/><path d="m49.0664101 37.4894295v-7.1940098c-2.915947.1372375-5.6651955.8945484-8.1160889 2.1620541l3.6033897 6.241333c1.3832589-.6681786 2.9038086-1.0903778 4.5126992-1.2093773z" fill="#4388b9"/><path d="m39.6242867 42.9315033c.8859406-1.2985115 2.0086899-2.421257 3.3067436-3.3076019l-3.5968933-6.2301598c-2.3810768 1.5330925-4.4069786 3.5595055-5.93927 5.9410973z" fill="#509fd7"/><path d="m60.3759995 42.9315033 6.2294769-3.5966644c-1.5324097-2.3820457-3.5583076-4.4089165-5.9391594-5.942009l-3.5970612 6.2303886c1.2979965.8863411 2.4207421 2.0095444 3.3067437 3.3082848z" fill="#d49145"/><path d="m62.508194 50.9341202c-.11866 1.6085472-.5404587 3.128643-1.208065 4.5119553l6.240757 3.6030502c1.2663727-2.4506645 2.0232239-5.1995125 2.1598892-8.1150055z" fill="#41a28d"/><path d="m61.300415 44.5546379c.6675491 1.3830872 1.0891762 2.9034119 1.2077789 4.5119591h7.1925812c-.1365509-2.915493-.8933487-5.664341-2.1595993-8.1152306z" fill="#4abaa4"/><path d="m37.4917526 49.066597c.1185989-1.6085472.5403404-3.129097 1.2079468-4.5121841l-6.2406464-3.6030464c-1.2664795 2.4508896-2.0232792 5.1997375-2.159832 8.1152306h7.1925316z" fill="#b0b1b5"/><path d="m38.6999855 55.4460754c-.6677208-1.3830833-1.0895767-2.9034081-1.2082329-4.5119553h-7.1925316c.1366673 2.915493.8935242 5.664341 2.1601181 8.1150055z" fill="#dad7dc"/><path d="m43.5560608 43.4942932s3.8810844 7.9211388 4.9967499 9.0368042c1.1158371 1.1158371 2.9243469 1.1157951 4.0400963.000042 1.1149101-1.1149101 1.1149559-2.92342-.0008812-4.039257-1.1156655-1.1156655-9.035965-4.9975892-9.035965-4.9975892zm8.1161728 8.1165276c-.6073303.6073303-1.5916862.6073723-2.1991043-.0000458-.6072426-.6072388-.6073761-1.591774-.0000458-2.1991043.6068878-.6068878 1.591423-.6067543 2.1986656.0004845.6074181.607418.6073723 1.5917778.0004845 2.1986656z" fill="#e6e7e8"/></svg>